<?xml version="1.0" standalone="no"?>
<!DOCTYPE svg PUBLIC "-//W3C//DTD SVG 20010904//EN"
 "http://www.w3.org/TR/2001/REC-SVG-20010904/DTD/svg10.dtd">
<svg version="1.0" xmlns="http://www.w3.org/2000/svg"
 width="272.000000pt" height="227.000000pt" viewBox="0 0 272.000000 227.000000"
 preserveAspectRatio="xMidYMid meet">

<g transform="translate(0.000000,227.000000) scale(0.100000,-0.100000)"
fill="#000000" stroke="none">
<path d="M10 1125 l0 -1115 1345 0 1345 0 0 1115 0 1115 -1345 0 -1345 0 0
-1115z m2668 3 l2 -1088 -1320 0 -1320 0 0 1090 0 1090 1318 -2 1317 -3 3
-1087z"/>
<path d="M230 1130 l0 -910 560 0 560 0 0 910 0 910 -560 0 -560 0 0 -910z
m480 30 l0 -270 150 0 150 0 0 -35 0 -35 -190 0 -190 0 0 305 0 305 40 0 40 0
0 -270z"/>
<path d="M1630 1145 l0 -305 85 0 84 0 3 153 3 152 58 -82 58 -83 54 0 54 0
58 81 58 81 3 -151 3 -151 84 0 85 0 0 305 0 305 -69 0 -69 0 -103 -145 -103
-144 -40 57 c-23 31 -68 95 -101 142 l-61 85 -72 3 -72 3 0 -306z"/>
</g>
</svg>
